<svg width="50" height="50" viewBox="0 0 50 50" fill="none" xmlns="http://www.w3.org/2000/svg">
<rect width="50" height="50" rx="8" fill="#2405F2"/>
<mask id="mask0_706_725" style="mask-type:alpha" maskUnits="userSpaceOnUse" x="0" y="0" width="50" height="50">
<rect width="50" height="50" rx="8" fill="#5C5E84"/>
</mask>
<g mask="url(#mask0_706_725)">
<rect x="-26" y="27" width="50" height="50" rx="8" fill="#FCD980"/>
<rect x="8" y="-9" width="50" height="50" rx="8" fill="#5239FA"/>
</g>
<path d="M16.08 24.268C16.08 22.192 16.428 20.572 17.124 19.408C17.832 18.232 19.044 17.644 20.76 17.644C22.476 17.644 23.682 18.232 24.378 19.408C25.086 20.572 25.44 22.192 25.44 24.268C25.44 26.368 25.086 28.012 24.378 29.2C23.682 30.376 22.476 30.964 20.76 30.964C19.044 30.964 17.832 30.376 17.124 29.2C16.428 28.012 16.08 26.368 16.08 24.268ZM23.424 24.268C23.424 23.296 23.358 22.474 23.226 21.802C23.106 21.13 22.854 20.584 22.47 20.164C22.086 19.732 21.516 19.516 20.76 19.516C20.004 19.516 19.434 19.732 19.05 20.164C18.666 20.584 18.408 21.13 18.276 21.802C18.156 22.474 18.096 23.296 18.096 24.268C18.096 25.276 18.156 26.122 18.276 26.806C18.396 27.49 18.648 28.042 19.032 28.462C19.428 28.882 20.004 29.092 20.76 29.092C21.516 29.092 22.086 28.882 22.47 28.462C22.866 28.042 23.124 27.49 23.244 26.806C23.364 26.122 23.424 25.276 23.424 24.268ZM27.3593 28.264V26.716L33.4073 18.04H35.8913V26.482H37.5653V28.264H35.8913V31H33.8753V28.264H27.3593ZM33.9653 20.128L29.7173 26.482H33.9653V20.128Z" fill="white"/>
</svg>
